<svg width="468" height="591" xmlns="http://www.w3.org/2000/svg" xmlns:xlink="http://www.w3.org/1999/xlink" xml:space="preserve" overflow="hidden"><defs><clipPath id="clip0"><rect x="3262" y="1099" width="468" height="591"/></clipPath><linearGradient x1="3435.79" y1="1417.01" x2="3555.21" y2="1543.39" gradientUnits="userSpaceOnUse" spreadMethod="reflect" id="fill1"><stop offset="0" stop-color="#CCCCCC"/><stop offset="0.2398" stop-color="#E6E6E6"/><stop offset="0.49761" stop-color="#CCCCCC"/><stop offset="0.75054" stop-color="#CCCCCC"/><stop offset="1" stop-color="#CCCCCC"/></linearGradient><linearGradient x1="3335.03" y1="1319.67" x2="3654.97" y2="1639.73" gradientUnits="userSpaceOnUse" spreadMethod="reflect" id="fill2"><stop offset="0" stop-color="#CCCCCC"/><stop offset="0.2398" stop-color="#E6E6E6"/><stop offset="0.49761" stop-color="#F9F9F9"/><stop offset="0.75054" stop-color="#CCCCCC"/><stop offset="1" stop-color="#CCCCCC"/></linearGradient></defs><g clip-path="url(#clip0)" transform="translate(-3262 -1099)"><path d="M3727.5 1271.13 3727.5 1656.66C3727.5 1673.7 3713.69 1687.5 3696.63 1687.5L3295.37 1687.5C3278.31 1687.5 3264.5 1673.7 3264.5 1656.66L3264.5 1132.34C3264.5 1115.3 3278.31 1101.5 3295.37 1101.5L3557.73 1101.5 3727.5 1271.13Z" stroke="#F2F2F2" stroke-width="4.58333" stroke-miterlimit="8" fill="#FFFFFF" fill-rule="evenodd"/><path d="M3557 1101 3557 1240.09C3557 1257.17 3570.83 1271 3587.91 1271L3727 1271 3557 1101Z" fill="#F2F2F2" fill-rule="evenodd"/><path d="M3518.32 1480.21C3518.32 1492.81 3508.1 1503.03 3495.5 1503.03 3482.9 1503.03 3472.68 1492.81 3472.68 1480.21 3472.68 1467.6 3482.9 1457.38 3495.5 1457.38 3508.1 1457.38 3518.32 1467.6 3518.32 1480.21ZM3557 1480.21C3557 1514.18 3529.47 1541.7 3495.5 1541.7 3461.53 1541.7 3434 1514.18 3434 1480.21 3434 1446.24 3461.53 1418.7 3495.5 1418.7 3529.47 1418.7 3557 1446.24 3557 1480.21Z" fill="url(#fill1)" fill-rule="evenodd"/><path d="M3556.3 1479.71C3556.3 1513.57 3528.86 1541 3495 1541 3461.14 1541 3433.7 1513.57 3433.7 1479.71 3433.7 1445.85 3461.14 1418.4 3495 1418.4 3528.86 1418.4 3556.3 1445.85 3556.3 1479.71ZM3655 1479.71C3655 1568.08 3583.37 1639.7 3495 1639.7 3406.63 1639.7 3335 1568.08 3335 1479.71 3335 1391.34 3406.63 1319.7 3495 1319.7 3583.37 1319.7 3655 1391.34 3655 1479.71Z" fill="url(#fill2)" fill-rule="evenodd"/></g></svg>